<?xml version="1.0" encoding="UTF-8" standalone="no"?>
<svg
   xmlns:dc="http://purl.org/dc/elements/1.1/"
   xmlns:cc="http://creativecommons.org/ns#"
   xmlns:rdf="http://www.w3.org/1999/02/22-rdf-syntax-ns#"
   xmlns:svg="http://www.w3.org/2000/svg"
   xmlns="http://www.w3.org/2000/svg"
   xmlns:sodipodi="http://sodipodi.sourceforge.net/DTD/sodipodi-0.dtd"
   xmlns:inkscape="http://www.inkscape.org/namespaces/inkscape"
   fill="#ffffff"
   width="357.25px"
   height="124px"
   viewBox="0 0 357.25 124"
   version="1.1"
   id="svg14"
   sodipodi:docname="logo.svg"
   inkscape:version="0.92.4 (5da689c313, 2019-01-14)">
  <metadata
     id="metadata20">
    <rdf:RDF>
      <cc:Work
         rdf:about="">
        <dc:format>image/svg+xml</dc:format>
        <dc:type
           rdf:resource="http://purl.org/dc/dcmitype/StillImage" />
        <dc:title></dc:title>
      </cc:Work>
    </rdf:RDF>
  </metadata>
  <defs
     id="defs18" />
  <sodipodi:namedview
     pagecolor="#ffffff"
     bordercolor="#666666"
     borderopacity="1"
     objecttolerance="10"
     gridtolerance="10"
     guidetolerance="10"
     inkscape:pageopacity="0"
     inkscape:pageshadow="2"
     inkscape:window-width="1692"
     inkscape:window-height="1149"
     id="namedview16"
     showgrid="false"
     inkscape:pagecheckerboard="true"
     inkscape:zoom="0.90412876"
     inkscape:cx="24.332817"
     inkscape:cy="62"
     inkscape:window-x="3324"
     inkscape:window-y="239"
     inkscape:window-maximized="0"
     inkscape:current-layer="svg14" />
  <g
     id="text4152"
     style="font-style:normal;font-weight:normal;line-height:0%;font-family:sans-serif;letter-spacing:0px;word-spacing:0px;fill:#ffffff;fill-opacity:1;stroke:none"
     aria-label="ArchES"
     transform="matrix(0.52323841,0,0,0.52323841,-12.895763,-441.01496)">
    <path
       inkscape:connector-curvature="0"
       id="path3739"
       style="font-style:normal;font-variant:normal;font-weight:bold;font-stretch:normal;font-size:150px;line-height:1.25;font-family:'Trajan Pro';-inkscape-font-specification:'Trajan Pro Bold';fill:#ffffff;fill-opacity:1"
       d="m 127.98081,962.57588 c 0.75,0 1.2,0.3 1.5,1.05 l 12,31.8 c 0.75,1.8 -0.3,3.15 -1.35,3.45 -1.5,0.15 -2.1,0.45 -2.1,1.35002 0,1.05 1.8,1.05 4.5,1.2 12,0.3 22.95,0.3 28.35,0.3 5.55,0 6.9,-0.3 6.9,-1.5 0,-1.05002 -0.75,-1.20002 -1.95,-1.20002 -1.8,0 -4.05,-0.15 -6.3,-0.6 -3.15,-0.75 -7.5,-2.85 -13.2,-16.35 -9.6,-22.8 -33.6,-84 -37.2,-92.25 -1.5,-3.45 -2.4,-4.8 -3.75,-4.8 -1.5,0 -2.4,1.65 -4.2,6 l -37.650005,94.2 c -3,7.5 -5.85,12.6 -12.75,13.5 -1.2,0.15 -3.3,0.3 -4.65,0.3 -1.2,0 -1.8,0.3 -1.8,1.20002 0,1.2 0.9,1.5 2.85,1.5 7.8,0 16.05,-0.45 17.7,-0.45 4.65,0 11.1,0.45 15.9,0.45 1.65,0 2.55,-0.3 2.55,-1.5 0,-0.90002 -0.45,-1.20002 -2.25,-1.20002 h -2.25 c -4.65,0 -6,-1.95 -6,-4.65 0,-1.8 0.75,-5.4 2.25,-9.15 l 8.1,-21.45 c 0.3,-0.9 0.6,-1.2 1.35,-1.2 z m -30.450005,-7.5 c -0.6,0 -0.75,-0.45 -0.6,-1.05 l 13.800005,-36.9 c 0.15,-0.6 0.45,-1.35 0.9,-1.35 0.45,0 0.6,0.75 0.75,1.35 l 13.5,37.05 c 0.15,0.45 0,0.9 -0.75,0.9 z" />
    <path
       inkscape:connector-curvature="0"
       id="path3741"
       style="font-style:normal;font-variant:normal;font-weight:bold;font-stretch:normal;font-size:150px;line-height:1.25;font-family:'Trajan Pro';-inkscape-font-specification:'Trajan Pro Bold';fill:#ffffff;fill-opacity:1"
       d="m 190.41362,964.67588 c 0,11.7 0,21.75 -0.6,27.15 -0.45,3.75 -1.2,6.15 -3.9,6.75 -1.2,0.3 -2.7,0.45 -4.65,0.45 -1.65,0 -2.1,0.75 -2.1,1.35002 0,0.9 0.9,1.35 2.55,1.35 5.25,0 13.65,-0.45 16.2,-0.45 1.95,0 12.9,0.45 20.55,0.45 1.65,0 2.7,-0.45 2.7,-1.35 0,-0.60002 -0.6,-1.35002 -1.65,-1.35002 -1.65,0 -4.5,-0.15 -6.45,-0.45 -4.05,-0.6 -4.65,-3 -5.1,-6.75 -0.6,-5.4 -0.75,-15.3 -0.75,-27.15 v -1.8 c 0,-0.75 0.45,-1.05 1.05,-1.05 l 11.85,0.3 c 0.9,0 1.65,0.15 2.4,0.9 1.65,1.95 7.2,10.5 12.45,17.4 7.35,9.9 12.3,15.9 18,18.75 3.45,1.80002 7.05,2.55002 14.4,2.55002 h 12.6 c 1.65,0 2.55,-0.3 2.55,-1.35 0,-0.60002 -0.6,-1.35002 -1.65,-1.35002 -1.05,0 -1.8,0 -3.15,-0.3 -2.1,-0.45 -6.75,-1.05 -14.1,-8.4 -7.95,-7.95 -17.25,-19.5 -28.95,-33.9 12.9,-10.35 18.3,-18.75 18.3,-28.2 0,-8.55 -5.55,-15 -9.3,-17.55 -7.05,-4.65 -16.65,-5.4 -25.05,-5.4 -4.05,0 -16.05,0.3 -20.55,0.3 -2.7,0 -11.1,-0.3 -18,-0.3 -1.95,0 -3,0.3 -3,1.2 0,0.9 0.9,1.35 2.25,1.35 1.95,0 4.2,0.15 5.25,0.45 4.2,1.2 5.4,2.55 5.7,6.9 0.15,4.05 0.15,7.65 0.15,27 z m 16.8,-50.55 c 0,-1.05 0.3,-1.5 1.2,-1.8 1.35,-0.3 4.5,-0.45 7.8,-0.45 7.8,0 20.1,4.65 20.1,22.65 0,10.5 -4.5,16.05 -8.55,18.9 -2.25,1.65 -4.05,2.1 -9.3,2.1 -3.3,0 -7.2,-0.3 -10.05,-1.2 -0.9,-0.45 -1.2,-0.9 -1.2,-2.25 z" />
    <path
       inkscape:connector-curvature="0"
       id="path3743"
       style="font-style:normal;font-variant:normal;font-weight:bold;font-stretch:normal;font-size:150px;line-height:1.25;font-family:'Trajan Pro';-inkscape-font-specification:'Trajan Pro Bold';fill:#ffffff;fill-opacity:1"
       d="m 339.76674,1003.3759 c 8.55,0 18.6,-0.75 23.85,-2.85 2.25,-0.90002 2.85,-1.50002 3.45,-3.75002 1.35,-4.35 2.85,-15.45 2.85,-16.95 0,-1.05 -0.6,-2.25 -1.5,-2.25 -1.05,0 -1.35,0.6 -1.65,2.55 -0.45,2.4 -2.25,6 -4.5,8.55 -5.25,5.85 -11.7,6.75 -23.4,6.75 -17.7,0 -41.1,-14.4 -41.1,-44.7 0,-12.45 2.4,-24.75 12.15,-33.15 6,-5.1 13.35,-7.2 24.9,-7.2 12.15,0 21,3.15 25.5,7.5 3.3,3.3 4.95,7.8 5.1,11.85 0,1.65 0.3,2.7 1.35,2.7 1.2,0 1.65,-1.35 1.8,-3.15 0.15,-2.55 0.15,-9.6 0.45,-13.8 0.3,-4.5 0.6,-6 0.6,-7.05 0,-0.75 -0.45,-1.35 -1.95,-1.5 -3.9,-0.45 -8.25,-1.35 -13.2,-2.1 -6,-0.75 -10.95,-1.35 -19.2,-1.35 -19.65,0 -32.25,5.1 -41.85,13.5 -12.6,11.25 -15.45,26.25 -15.45,34.95 0,12.3 3.45,26.7 16.5,37.65 12,10.05 27.3,13.80002 45.3,13.80002 z" />
    <path
       inkscape:connector-curvature="0"
       id="path3745"
       style="font-style:normal;font-variant:normal;font-weight:bold;font-stretch:normal;font-size:150px;line-height:1.25;font-family:'Trajan Pro';-inkscape-font-specification:'Trajan Pro Bold';fill:#ffffff;fill-opacity:1"
       d="m 416.72846,946.82588 c -0.45,0 -0.9,-0.15 -0.9,-0.9 v -2.7 c 0,-19.35 0,-24 0.3,-28.05 0.3,-4.5 1.35,-6.3 4.95,-6.9 1.5,-0.3 2.7,-0.45 3.75,-0.45 1.65,0 2.4,-0.45 2.4,-1.35 0,-0.9 -0.9,-1.2 -2.7,-1.2 -5.25,0 -14.4,0.3 -17.55,0.3 -3.6,0 -12.3,-0.3 -19.35,-0.3 -1.8,0 -2.85,0.3 -2.85,1.2 0,0.9 0.9,1.35 2.25,1.35 1.95,0 4.2,0.15 5.25,0.45 4.2,1.2 5.4,2.55 5.7,6.9 0.15,4.05 0.15,7.65 0.15,27 v 22.5 c 0,11.7 0,21.75 -0.6,27.15 -0.45,3.75 -1.2,6.15 -3.9,6.75 -1.2,0.3 -2.7,0.45 -4.65,0.45 -1.65,0 -2.1,0.75 -2.1,1.35002 0,0.9 0.9,1.35 2.55,1.35 5.25,0 13.95,-0.45 16.95,-0.45 3.75,0 12.9,0.45 21.45,0.45 1.65,0 2.7,-0.45 2.7,-1.35 0,-0.60002 -0.6,-1.35002 -2.1,-1.35002 -1.95,0 -4.95,-0.15 -6.75,-0.45 -3.9,-0.6 -4.65,-3 -5.1,-6.6 -0.6,-5.55 -0.75,-15.3 -0.75,-27 v -9.75 c 0,-0.6 0.45,-0.75 0.9,-0.75 h 49.8 c 0.3,0 0.75,0.3 0.75,0.75 v 9.75 c 0,11.7 0,21.45 -0.6,26.85 -0.45,3.75 -1.2,6.15 -3.9,6.75 -1.2,0.3 -2.7,0.45 -4.8,0.45 -1.5,0 -2.1,0.75 -2.1,1.35002 0,0.9 1.05,1.35 2.85,1.35 5.1,0 14.4,-0.45 17.4,-0.45 3.6,0 12.3,0.45 20.85,0.45 1.65,0 2.7,-0.45 2.7,-1.35 0,-0.60002 -0.75,-1.35002 -2.1,-1.35002 -2.1,0 -4.95,-0.15 -6.75,-0.45 -4.05,-0.6 -4.8,-3 -5.25,-6.6 -0.6,-5.55 -0.6,-15.6 -0.6,-27.3 v -22.5 c 0,-19.35 0,-22.95 0.3,-27 0.3,-4.5 1.35,-6.3 4.8,-6.9 1.65,-0.3 2.85,-0.45 3.9,-0.45 1.5,0 2.4,-0.45 2.4,-1.35 0,-0.9 -0.9,-1.2 -2.85,-1.2 -5.1,0 -13.8,0.3 -16.95,0.3 -3.45,0 -12.75,-0.3 -19.8,-0.3 -1.95,0 -2.85,0.3 -2.85,1.2 0,0.9 0.75,1.35 2.25,1.35 1.8,0 4.05,0.15 5.1,0.45 4.2,1.2 5.4,2.55 5.7,6.9 0.15,4.05 0.3,8.7 0.3,28.05 v 2.7 c 0,0.75 -0.45,0.9 -0.75,0.9 z" />
    <path
       inkscape:connector-curvature="0"
       id="path3747"
       style="font-style:normal;font-variant:normal;font-weight:bold;font-stretch:normal;font-size:150px;line-height:1.25;font-family:'Trajan Pro';-inkscape-font-specification:'Trajan Pro Bold';fill:#ffffff;fill-opacity:1"
       d="m 531.20659,958.22588 c 0,13.8 0,25.65 -0.75,31.95 -0.6,4.35 -1.35,7.65 -4.35,8.25 -1.35,0.3 -3.15,0.6 -5.4,0.6 -1.8,0 -2.4,0.45 -2.4,1.20002 0,1.05 1.05,1.5 3,1.5 3,0 6.9,-0.3 10.35,-0.3 3.6,-0.15 6.9,-0.15 8.55,-0.15 4.5,0 9.15,0.15 15.6,0.45 6.45,0.15 14.7,0.45 25.95,0.45 5.7,0 7.05,0 8.1,-3.90002 0.75,-3 1.95,-13.2 1.95,-16.65 0,-1.5 0,-2.7 -1.2,-2.7 -1.05,0 -1.35,0.6 -1.65,2.25 -1.05,6.15 -2.85,9.3 -6.75,11.1 -3.9,1.8 -10.2,1.8 -14.1,1.8 -15.3,0 -17.7,-2.25 -18,-12.6 -0.15,-4.35 0,-18.15 0,-23.25 v -11.85 c 0,-0.9 0.15,-1.5 0.9,-1.5 3.6,0 18.45,0.15 21.3,0.45 5.55,0.6 7.65,2.85 8.4,5.85 0.45,1.95 0.45,3.9 0.6,5.4 0,0.75 0.3,1.35 1.35,1.35 1.35,0 1.35,-1.65 1.35,-2.85 0,-1.05 0.45,-7.05 0.6,-10.05 0.6,-7.65 1.2,-10.05 1.2,-10.95 0,-0.9 -0.45,-1.2 -1.05,-1.2 -0.75,0 -1.35,0.75 -2.4,1.95 -1.35,1.5 -3.6,1.95 -7.2,2.25 -3.45,0.3 -20.7,0.3 -24,0.3 -0.9,0 -1.05,-0.6 -1.05,-1.65 v -37.95 c 0,-1.05 0.3,-1.5 1.05,-1.5 3,0 18.75,0.3 21.3,0.6 7.5,0.9 9,2.7 10.05,5.4 0.75,1.8 0.9,4.35 0.9,5.4 0,1.35 0.3,2.1 1.35,2.1 1.05,0 1.35,-0.9 1.5,-1.65 0.3,-1.8 0.6,-8.4 0.75,-9.9 0.45,-6.9 1.2,-8.7 1.2,-9.75 0,-0.75 -0.15,-1.35 -0.9,-1.35 -0.75,0 -1.65,0.45 -2.4,0.6 -1.2,0.3 -3.6,0.6 -6.45,0.9 -2.85,0.15 -32.7,0.15 -37.5,0.15 -2.1,0 -5.55,-0.15 -9.45,-0.3 -3.75,0 -8.1,-0.15 -12.15,-0.15 -2.25,0 -3.3,0.3 -3.3,1.35 0,1.05 0.9,1.35 2.55,1.35 2.1,0 4.65,0.15 5.85,0.45 4.95,1.05 6.15,3.45 6.45,8.55 0.3,4.8 0.3,9 0.3,31.8 z" />
    <path
       inkscape:connector-curvature="0"
       id="path3749"
       style="font-style:normal;font-variant:normal;font-weight:bold;font-stretch:normal;font-size:150px;line-height:1.25;font-family:'Trajan Pro';-inkscape-font-specification:'Trajan Pro Bold';fill:#ffffff;fill-opacity:1"
       d="m 639.77846,1003.8259 c 7.95,0 16.35,-1.35 23.85,-6.15002 10.8,-7.05 14.1,-17.4 14.1,-26.1 0,-14.25 -6.45,-24.6 -24.6,-38.25 l -4.2,-3.15 c -12.45,-9.45 -15.9,-14.7 -15.9,-21.6 0,-9 6.75,-15.45 17.85,-15.45 9.75,0 14.1,4.5 16.35,7.35 3.15,3.9 3.9,8.55 3.9,9.9 0,1.8 0.45,2.7 1.5,2.7 1.2,0 1.65,-1.2 1.65,-4.5 0,-11.7 0.6,-16.05 0.6,-18 0,-1.05 -0.75,-1.5 -2.1,-1.8 -3.9,-1.05 -10.2,-2.55 -19.95,-2.55 -20.85,0 -34.65,11.85 -34.65,28.35 0,12.15 5.7,22.65 22.2,35.55 l 6.9,5.4 c 12.45,9.75 14.7,16.65 14.7,24 0,7.95 -6.6,17.1 -20.1,17.1 -9.3,0 -18.15,-4.05 -21.45,-15.15 -0.75,-2.55 -1.35,-5.7 -1.35,-7.65 0,-1.2 -0.15,-2.55 -1.5,-2.55 -1.2,0 -1.65,1.65 -1.8,3.9 -0.15,2.4 -0.75,11.4 -0.75,19.65 0,3.3 0.45,4.05 2.85,5.1 6.45,2.85002 13.2,3.90002 21.9,3.90002 z" />
  </g>
  <g
     id="text4156"
     style="font-style:normal;font-weight:normal;line-height:0%;font-family:sans-serif;letter-spacing:11.07999325px;word-spacing:0px;fill:#ffffff;fill-opacity:1;stroke:none"
     aria-label="Computing Systems"
     transform="matrix(0.52323841,0,0,0.52323841,-12.895763,-441.01496)">
    <path
       inkscape:connector-curvature="0"
       id="path3752"
       style="font-style:normal;font-variant:normal;font-weight:bold;font-stretch:normal;font-size:40px;line-height:1.25;font-family:'Trajan Pro';-inkscape-font-specification:'Trajan Pro Bold';letter-spacing:11.07999325px;word-spacing:0px;fill:#ffffff"
       d="m 73.705302,1037.673 c 2.56,0 5.6,-0.28 7.2,-0.92 0.68,-0.28 0.84,-0.48 1.04,-1.16 0.4,-1.36 0.88,-4.84 0.88,-5.32 0,-0.32 -0.08,-0.6 -0.36,-0.6 -0.32,0 -0.4,0.16 -0.52,0.8 -0.16,0.72 -0.68,1.88 -1.36,2.64 -1.6,1.84 -3.76,2.24 -7.32,2.24 -5.36,0 -12.6,-4.72 -12.6,-14.24 0,-3.88 0.76,-7.68 3.68,-10.36 1.76,-1.6 4.04,-2.48 7.52,-2.48 3.68,0 6.8,1.08 8.12,2.48 1,1.04 1.52,2.44 1.56,3.68 0,0.56 0.08,0.88 0.4,0.88 0.36,0 0.44,-0.32 0.48,-0.92 0.08,-0.8 0.04,-3 0.12,-4.32 0.08,-1.4 0.2,-1.88 0.2,-2.2 0,-0.24 -0.16,-0.44 -0.6,-0.48 -1.2,-0.12 -2.48,-0.48 -4,-0.68 -1.84,-0.24 -3.32,-0.4 -5.8,-0.4 -5.96,0 -9.76,1.6 -12.64,4.24 -3.84,3.52 -4.68,8.24 -4.68,10.96 0,3.88 1.04,8.36 4.96,11.8 3.64,3.16 8.24,4.36 13.72,4.36 z" />
    <path
       inkscape:connector-curvature="0"
       id="path3754"
       style="font-style:normal;font-variant:normal;font-weight:bold;font-stretch:normal;font-size:40px;line-height:1.25;font-family:'Trajan Pro';-inkscape-font-specification:'Trajan Pro Bold';letter-spacing:11.07999325px;word-spacing:0px;fill:#ffffff"
       d="m 112.25655,1037.553 c 9.08,0 14.76,-6.12 14.76,-13.92 0,-7.8 -5.52,-12.72 -14.4,-12.72 -10.68,0 -14.760004,7.52 -14.760004,13.32 0,6.04 4.160004,13.32 14.400004,13.32 z m 1.44,-1.84 c -6.64,0 -10.64,-5.52 -10.64,-12.52 0,-8.4 4.6,-10.48 8.52,-10.48 5.68,0 10.2,4.64 10.2,12.16 0,9.68 -5.6,10.84 -8.08,10.84 z" />
    <path
       inkscape:connector-curvature="0"
       id="path3756"
       style="font-style:normal;font-variant:normal;font-weight:bold;font-stretch:normal;font-size:40px;line-height:1.25;font-family:'Trajan Pro';-inkscape-font-specification:'Trajan Pro Bold';letter-spacing:11.07999325px;word-spacing:0px;fill:#ffffff"
       d="m 143.42904,1033.713 c -0.16,1.12 -0.48,2.48 -1.44,2.6 -0.56,0.08 -0.8,0.08 -1.08,0.08 -0.36,0 -0.56,0.16 -0.56,0.32 0,0.32 0.28,0.4 0.64,0.4 1.12,0 2.8,-0.12 3.48,-0.12 0.64,0 2.24,0.12 3.72,0.12 0.52,0 0.84,-0.08 0.84,-0.4 0,-0.16 -0.24,-0.32 -0.56,-0.32 -0.32,0 -0.64,-0.04 -1.24,-0.16 -0.6,-0.12 -1.08,-0.36 -1.08,-1 0,-0.56 0.04,-1 0.12,-1.6 l 1.68,-13.28 h 0.12 c 1.16,2.36 3.24,6.64 3.52,7.28 0.4,0.96 3.2,6.16 4.04,7.72 0.56,1.04 0.96,1.72 1.4,1.72 0.4,0 0.6,-0.32 1.4,-1.92 l 7.56,-15.2 h 0.12 l 1.96,14.72 c 0.12,0.96 0.04,1.36 -0.16,1.44 -0.24,0.08 -0.4,0.2 -0.4,0.36 0,0.2 0.2,0.36 1.04,0.4 1.4,0.08 6.4,0.24 7.28,0.24 0.52,0 0.92,-0.12 0.92,-0.4 0,-0.2 -0.24,-0.32 -0.56,-0.32 -0.44,0 -1,-0.04 -2,-0.32 -1.08,-0.32 -1.4,-1.24 -1.72,-3.36 l -3.2,-21 c -0.12,-0.72 -0.52,-1.08 -0.8,-1.08 -0.32,0 -0.64,0.28 -0.92,0.84 l -9.44,19.2 -9.44,-18.96 c -0.48,-0.92 -0.72,-1.08 -1.08,-1.08 -0.28,0 -0.6,0.32 -0.68,0.88 z" />
    <path
       inkscape:connector-curvature="0"
       id="path3758"
       style="font-style:normal;font-variant:normal;font-weight:bold;font-stretch:normal;font-size:40px;line-height:1.25;font-family:'Trajan Pro';-inkscape-font-specification:'Trajan Pro Bold';letter-spacing:11.07999325px;word-spacing:0px;fill:#ffffff"
       d="m 193.62215,1027.233 c 0,3.12 0,5.8 -0.16,7.24 -0.12,1 -0.32,1.64 -1.04,1.8 -0.32,0.08 -0.72,0.12 -1.24,0.12 -0.44,0 -0.56,0.2 -0.56,0.36 0,0.24 0.24,0.36 0.68,0.36 1.4,0 3.64,-0.12 4.44,-0.12 0.92,0 3.4,0.12 5.76,0.12 0.36,0 0.64,-0.12 0.64,-0.36 0,-0.16 -0.16,-0.36 -0.56,-0.36 -0.52,0 -1.28,-0.04 -1.8,-0.12 -1.04,-0.16 -1.24,-0.8 -1.36,-1.76 -0.16,-1.48 -0.16,-4.16 -0.16,-7.28 v -13.48 c 0,-0.36 0.08,-0.56 0.28,-0.64 0.32,-0.12 1,-0.16 1.52,-0.16 0.8,0 2.24,0.16 3.52,1.28 1.96,1.68 2.08,3.92 2.08,5.04 0,3.48 -2.76,5.52 -4.72,5.52 -0.76,0 -1.16,0.16 -1.16,0.44 0,0.24 0.24,0.36 0.44,0.36 0.16,0.04 0.88,0.04 1.04,0.04 5,0 8.84,-3.44 8.84,-8.24 0,-1.84 -1,-3.36 -1.76,-4.08 -0.56,-0.48 -2.16,-1.92 -6.56,-1.92 -1.6,0 -4.4,0.08 -5.84,0.08 -1,0 -3.24,-0.08 -5.08,-0.08 -0.52,0 -0.8,0.08 -0.8,0.32 0,0.24 0.24,0.36 0.6,0.36 0.52,0 1.12,0.04 1.4,0.12 1.12,0.32 1.44,0.68 1.52,1.84 0.04,1.08 0.04,2.04 0.04,7.2 z" />
    <path
       inkscape:connector-curvature="0"
       id="path3760"
       style="font-style:normal;font-variant:normal;font-weight:bold;font-stretch:normal;font-size:40px;line-height:1.25;font-family:'Trajan Pro';-inkscape-font-specification:'Trajan Pro Bold';letter-spacing:11.07999325px;word-spacing:0px;fill:#ffffff"
       d="m 227.01028,1026.233 c 0,4.92 1.4,7.44 3.2,9 2.56,2.24 6.2,2.32 8.04,2.32 2.28,0 4.96,-0.36 7.44,-2.44 2.96,-2.44 3.36,-6.44 3.36,-10.24 v -3.64 c 0,-5.16 0.04,-6.12 0.08,-7.2 0.08,-1.2 0.32,-1.68 1.28,-1.84 0.44,-0.08 0.64,-0.12 1.04,-0.12 0.4,0 0.6,-0.12 0.6,-0.36 0,-0.24 -0.24,-0.32 -0.72,-0.32 -1.36,0 -3.72,0.08 -4.12,0.08 -0.04,0 -2.4,-0.08 -4.2,-0.08 -0.48,0 -0.72,0.08 -0.72,0.32 0,0.24 0.2,0.36 0.6,0.36 0.4,0 1,0.04 1.28,0.12 1.12,0.32 1.4,0.68 1.48,1.84 0.04,1.08 0.08,2.04 0.08,7.2 v 4.28 c 0,3.48 -0.08,6.44 -2.04,8.28 -1.4,1.36 -3.2,1.8 -4.72,1.8 -1.2,0 -2.88,-0.12 -4.44,-1.36 -1.72,-1.36 -2.68,-3.28 -2.68,-8.24 v -4.76 c 0,-5.16 0,-6.12 0.08,-7.2 0.08,-1.2 0.36,-1.68 1.28,-1.84 0.44,-0.08 0.64,-0.12 1.04,-0.12 0.36,0 0.56,-0.12 0.56,-0.36 0,-0.24 -0.24,-0.32 -0.76,-0.32 -1.28,0 -3.64,0.08 -4.52,0.08 -1.04,0 -3.4,-0.08 -5.28,-0.08 -0.52,0 -0.76,0.08 -0.76,0.32 0,0.24 0.2,0.36 0.6,0.36 0.48,0 1.08,0.04 1.36,0.12 1.12,0.32 1.44,0.64 1.52,1.84 0.08,1.08 0.04,2.04 0.04,7.2 z" />
    <path
       inkscape:connector-curvature="0"
       id="path3762"
       style="font-style:normal;font-variant:normal;font-weight:bold;font-stretch:normal;font-size:40px;line-height:1.25;font-family:'Trajan Pro';-inkscape-font-specification:'Trajan Pro Bold';letter-spacing:11.07999325px;word-spacing:0px;fill:#ffffff"
       d="m 274.68089,1027.233 c 0,3.12 0,5.8 -0.16,7.24 -0.12,1 -0.32,1.64 -1.04,1.8 -0.28,0.08 -0.72,0.12 -1.24,0.12 -0.44,0 -0.56,0.2 -0.56,0.36 0,0.24 0.24,0.36 0.68,0.36 1.4,0 3.8,-0.12 4.6,-0.12 1,0 3.36,0.12 5.68,0.12 0.4,0 0.68,-0.12 0.68,-0.36 0,-0.16 -0.16,-0.36 -0.56,-0.36 -0.52,0 -1.32,-0.04 -1.8,-0.12 -1.04,-0.16 -1.24,-0.8 -1.36,-1.76 -0.16,-1.48 -0.2,-4.16 -0.2,-7.28 v -13.76 l 4.44,0.08 c 3.16,0.04 4.08,1.08 4.16,1.96 l 0.04,0.36 c 0.04,0.52 0.12,0.68 0.4,0.68 0.2,0 0.28,-0.2 0.32,-0.56 0,-0.88 0.08,-3.4 0.08,-4.12 0,-0.52 -0.04,-0.72 -0.28,-0.72 -0.12,0 -0.4,0.08 -0.96,0.16 -0.52,0.08 -1.28,0.16 -2.4,0.16 h -14.28 c -1.16,0 -2.48,-0.04 -3.52,-0.16 -0.88,-0.12 -1.24,-0.4 -1.52,-0.4 -0.2,0 -0.32,0.2 -0.4,0.64 -0.08,0.28 -0.76,3.56 -0.76,4.12 0,0.36 0.08,0.56 0.32,0.56 0.24,0 0.32,-0.16 0.4,-0.44 0.08,-0.24 0.24,-0.68 0.6,-1.16 0.52,-0.76 1.36,-1 3.4,-1.04 l 5.24,-0.12 z" />
    <path
       inkscape:connector-curvature="0"
       id="path3764"
       style="font-style:normal;font-variant:normal;font-weight:bold;font-stretch:normal;font-size:40px;line-height:1.25;font-family:'Trajan Pro';-inkscape-font-specification:'Trajan Pro Bold';letter-spacing:11.07999325px;word-spacing:0px;fill:#ffffff"
       d="m 306.39339,1027.233 c 0,3.28 0,6 -0.16,7.4 -0.12,1 -0.32,1.48 -1.04,1.64 -0.32,0.08 -0.72,0.12 -1.24,0.12 -0.44,0 -0.56,0.2 -0.56,0.36 0,0.24 0.24,0.36 0.68,0.36 1.4,0 3.8,-0.12 4.6,-0.12 0.96,0 3.36,0.12 5.68,0.12 0.4,0 0.68,-0.12 0.68,-0.36 0,-0.16 -0.16,-0.36 -0.56,-0.36 -0.52,0 -1.32,-0.04 -1.8,-0.12 -1.04,-0.16 -1.28,-0.68 -1.4,-1.6 -0.16,-1.44 -0.16,-4.16 -0.16,-7.44 v -6 c 0,-5.16 0,-6.12 0.08,-7.2 0.08,-1.2 0.36,-1.68 1.32,-1.84 0.4,-0.08 0.68,-0.12 1.04,-0.12 0.36,0 0.56,-0.08 0.56,-0.4 0,-0.2 -0.28,-0.28 -0.72,-0.28 -1.36,0 -3.64,0.08 -4.52,0.08 -1,0 -3.4,-0.08 -4.72,-0.08 -0.56,0 -0.84,0.08 -0.84,0.28 0,0.32 0.2,0.4 0.56,0.4 0.44,0 0.88,0.04 1.28,0.16 0.76,0.24 1.12,0.64 1.2,1.8 0.04,1.08 0.04,2.04 0.04,7.2 z" />
    <path
       inkscape:connector-curvature="0"
       id="path3766"
       style="font-style:normal;font-variant:normal;font-weight:bold;font-stretch:normal;font-size:40px;line-height:1.25;font-family:'Trajan Pro';-inkscape-font-specification:'Trajan Pro Bold';letter-spacing:11.07999325px;word-spacing:0px;fill:#ffffff"
       d="m 335.52339,1018.593 h 0.12 c 0.68,0.6 4.4,4.72 8.24,8.4 3.68,3.56 8.08,7.76 10.28,9.8 0.36,0.36 0.84,0.72 1.44,0.72 0.28,0 0.56,-0.32 0.56,-1.08 l 0.4,-21.44 c 0.04,-1.92 0.32,-2.52 1.28,-2.8 0.44,-0.12 0.72,-0.12 1.08,-0.12 0.4,0 0.6,-0.16 0.6,-0.36 0,-0.28 -0.32,-0.32 -0.8,-0.32 -1.72,0 -3.04,0.08 -3.44,0.08 -0.76,0 -2.64,-0.08 -4.48,-0.08 -0.52,0 -0.88,0.04 -0.88,0.32 0,0.2 0.12,0.36 0.56,0.36 0.48,0 1.32,0 1.84,0.2 0.84,0.32 1.16,0.92 1.2,3 l 0.36,15.12 h -0.16 c -0.52,-0.48 -5.2,-5.28 -7.6,-7.64 -5.12,-5 -10.4,-10.4 -10.84,-10.84 -0.6,-0.6 -1.08,-1.12 -1.52,-1.12 -0.36,0 -0.6,0.48 -0.6,1.16 l -0.32,20.16 c -0.04,2.96 -0.16,3.88 -1.08,4.12 -0.48,0.12 -1.12,0.16 -1.6,0.16 -0.32,0 -0.56,0.16 -0.56,0.36 0,0.32 0.32,0.36 0.8,0.36 1.8,0 3.48,-0.12 3.8,-0.12 0.64,0 2.28,0.12 4.56,0.12 0.48,0 0.8,-0.08 0.8,-0.36 0,-0.2 -0.2,-0.36 -0.6,-0.36 -0.56,0 -1.24,-0.04 -1.84,-0.24 -0.68,-0.24 -1.12,-1.04 -1.2,-3.68 z" />
    <path
       inkscape:connector-curvature="0"
       id="path3768"
       style="font-style:normal;font-variant:normal;font-weight:bold;font-stretch:normal;font-size:40px;line-height:1.25;font-family:'Trajan Pro';-inkscape-font-specification:'Trajan Pro Bold';letter-spacing:11.07999325px;word-spacing:0px;fill:#ffffff"
       d="m 399.56463,1031.073 c 0,-1.68 0,-3.04 0.04,-4.08 0.04,-1.2 0.4,-1.68 1.36,-1.84 0.4,-0.08 0.68,-0.12 0.96,-0.12 0.24,0 0.44,-0.16 0.44,-0.36 0,-0.28 -0.24,-0.32 -0.72,-0.32 -1.16,0 -3,0.08 -4.12,0.08 -1.04,0 -3.56,-0.08 -5.4,-0.08 -0.48,0 -0.76,0.04 -0.76,0.32 0,0.2 0.24,0.36 0.56,0.36 0.48,0 1.08,0.04 1.36,0.12 1.12,0.32 1.48,0.68 1.52,1.84 0.04,1.04 0.04,2.32 0.04,4 v 3.12 c 0,0.6 -0.16,0.96 -0.68,1.2 -0.84,0.36 -1.56,0.36 -2.48,0.36 -7.52,0 -12.24,-5.32 -12.24,-12.64 0,-4.16 1.28,-6.68 3.24,-8.28 2.44,-1.96 4.88,-2 6.8,-2 3.96,0 6.6,1.52 7.64,2.6 0.92,0.96 1.12,2.04 1.2,2.8 0.04,0.28 0.12,0.44 0.36,0.44 0.28,0 0.48,-0.24 0.48,-0.76 0,-4.28 0.24,-5.2 0.24,-5.6 0,-0.24 -0.08,-0.36 -0.48,-0.4 -0.84,-0.04 -2.08,-0.24 -2.8,-0.36 -0.72,-0.16 -3.8,-0.56 -6.24,-0.56 -2.96,0 -6.12,0.24 -9.48,2.2 -3.24,1.88 -6.16,5.68 -6.16,11.12 0,9.4 7.64,13.32 16.28,13.32 2.76,0 6.24,-0.36 8.6,-1.52 0.44,-0.24 0.44,-0.28 0.44,-1.2 z" />
    <path
       inkscape:connector-curvature="0"
       id="path3770"
       style="font-style:normal;font-variant:normal;font-weight:bold;font-stretch:normal;font-size:40px;line-height:1.25;font-family:'Trajan Pro';-inkscape-font-specification:'Trajan Pro Bold';letter-spacing:11.07999325px;word-spacing:0px;fill:#ffffff"
       d="m 448.04398,1037.673 c 2.12,0 4.36,-0.36 6.36,-1.64 2.88,-1.88 3.76,-4.64 3.76,-6.96 0,-3.8 -1.72,-6.56 -6.56,-10.2 l -1.12,-0.84 c -3.32,-2.52 -4.24,-3.92 -4.24,-5.76 0,-2.4 1.8,-4.12 4.76,-4.12 2.6,0 3.76,1.2 4.36,1.96 0.84,1.04 1.04,2.28 1.04,2.64 0,0.48 0.12,0.72 0.4,0.72 0.32,0 0.44,-0.32 0.44,-1.2 0,-3.12 0.16,-4.28 0.16,-4.8 0,-0.28 -0.2,-0.4 -0.56,-0.48 -1.04,-0.28 -2.72,-0.68 -5.32,-0.68 -5.56,0 -9.24,3.16 -9.24,7.56 0,3.24 1.52,6.04 5.92,9.48 l 1.84,1.44 c 3.32,2.6 3.92,4.44 3.92,6.4 0,2.12 -1.76,4.56 -5.36,4.56 -2.48,0 -4.84,-1.08 -5.72,-4.04 -0.2,-0.68 -0.36,-1.52 -0.36,-2.04 0,-0.32 -0.04,-0.68 -0.4,-0.68 -0.32,0 -0.44,0.44 -0.48,1.04 -0.04,0.64 -0.2,3.04 -0.2,5.24 0,0.88 0.12,1.08 0.76,1.36 1.72,0.76 3.52,1.04 5.84,1.04 z" />
    <path
       inkscape:connector-curvature="0"
       id="path3772"
       style="font-style:normal;font-variant:normal;font-weight:bold;font-stretch:normal;font-size:40px;line-height:1.25;font-family:'Trajan Pro';-inkscape-font-specification:'Trajan Pro Bold';letter-spacing:11.07999325px;word-spacing:0px;fill:#ffffff"
       d="m 481.76522,1031.073 c 0,0.56 0,1.96 -0.12,3.4 -0.08,1 -0.36,1.64 -1.08,1.8 -0.32,0.08 -0.76,0.12 -1.24,0.12 -0.4,0 -0.56,0.2 -0.56,0.36 0,0.28 0.28,0.36 0.76,0.36 1.32,0 3.68,-0.12 4.56,-0.12 0.96,0 3.32,0.12 5.52,0.12 0.48,0 0.76,-0.12 0.76,-0.36 0,-0.16 -0.2,-0.36 -0.6,-0.36 -0.48,0 -1.24,-0.04 -1.76,-0.12 -1.04,-0.16 -1.36,-0.8 -1.44,-1.8 -0.08,-1.44 -0.08,-2.84 -0.08,-3.4 v -2.72 c 0,-1.12 -0.08,-2.16 0.44,-3.4 0.64,-1.44 5.68,-9.52 6.84,-10.88 0.76,-0.92 1.08,-1.24 1.84,-1.6 0.52,-0.24 1.16,-0.4 1.52,-0.4 0.4,0 0.68,-0.16 0.68,-0.4 0,-0.2 -0.24,-0.28 -0.64,-0.28 -0.68,0 -3,0.08 -3.76,0.08 -1.04,0 -2.28,-0.08 -3.44,-0.08 -0.4,0 -0.6,0.08 -0.6,0.32 0,0.28 0.32,0.32 0.64,0.4 0.6,0.12 0.76,0.44 0.76,0.76 0,0.44 -0.16,1.04 -0.52,1.8 -0.52,1.04 -4.8,8.32 -5.24,9.12 -0.6,-0.96 -5.2,-8.92 -5.84,-9.96 -0.28,-0.48 -0.44,-0.88 -0.44,-1.16 0,-0.28 0.2,-0.44 0.48,-0.52 0.56,-0.16 0.8,-0.16 0.8,-0.44 0,-0.24 -0.2,-0.32 -0.52,-0.32 -1.6,0 -3.24,0.08 -4,0.08 -1.16,0 -3.8,-0.08 -4.4,-0.08 -0.44,0 -0.68,0.08 -0.68,0.32 0,0.24 0.24,0.36 0.52,0.36 0.44,0 1.04,0.2 1.48,0.44 0.68,0.36 1.4,1.16 2.28,2.4 1.24,1.8 6.04,9.28 6.28,9.8 0.48,1 0.8,1.72 0.8,3.56 z" />
    <path
       inkscape:connector-curvature="0"
       id="path3774"
       style="font-style:normal;font-variant:normal;font-weight:bold;font-stretch:normal;font-size:40px;line-height:1.25;font-family:'Trajan Pro';-inkscape-font-specification:'Trajan Pro Bold';letter-spacing:11.07999325px;word-spacing:0px;fill:#ffffff"
       d="m 516.43898,1037.553 c 1.88,0 4.2,-0.2 5.88,-1.4 2.56,-1.8 3.52,-3.84 3.52,-6.36 0,-3.08 -1.44,-5.68 -6.08,-8.24 l -1.44,-0.8 c -3.16,-1.76 -3.72,-2.96 -3.72,-4.48 0,-2.32 2.28,-3.64 4.8,-3.64 2.28,0 3.4,0.96 3.92,1.6 0.76,0.88 0.92,1.92 0.92,2.24 0,0.4 0.12,0.6 0.36,0.6 0.28,0 0.44,-0.36 0.44,-1.08 0,-2.68 0.12,-3.64 0.12,-4.08 0,-0.24 -0.16,-0.36 -0.48,-0.44 -0.92,-0.24 -2.72,-0.56 -5,-0.56 -4.88,0 -8.88,2.68 -8.88,6.84 0,3 1.36,5.28 5.52,7.72 l 2.04,1.2 c 3.12,1.84 3.48,3.32 3.48,4.8 0,2.4 -1.84,4.32 -4.88,4.32 -2.2,0 -4.84,-0.84 -5.6,-3.36 -0.2,-0.6 -0.32,-1.32 -0.32,-1.76 0,-0.24 -0.04,-0.56 -0.36,-0.56 -0.28,0 -0.44,0.36 -0.44,0.88 -0.04,0.56 -0.2,2.68 -0.2,4.52 0,0.76 0.12,0.92 0.68,1.16 1.52,0.68 3.68,0.88 5.72,0.88 z" />
    <path
       inkscape:connector-curvature="0"
       id="path3776"
       style="font-style:normal;font-variant:normal;font-weight:bold;font-stretch:normal;font-size:40px;line-height:1.25;font-family:'Trajan Pro';-inkscape-font-specification:'Trajan Pro Bold';letter-spacing:11.07999325px;word-spacing:0px;fill:#ffffff"
       d="m 549.96147,1027.233 c 0,3.12 0,5.8 -0.16,7.24 -0.12,1 -0.32,1.64 -1.04,1.8 -0.28,0.08 -0.72,0.12 -1.24,0.12 -0.44,0 -0.56,0.2 -0.56,0.36 0,0.24 0.24,0.36 0.68,0.36 1.4,0 3.8,-0.12 4.6,-0.12 1,0 3.36,0.12 5.68,0.12 0.4,0 0.68,-0.12 0.68,-0.36 0,-0.16 -0.16,-0.36 -0.56,-0.36 -0.52,0 -1.32,-0.04 -1.8,-0.12 -1.04,-0.16 -1.24,-0.8 -1.36,-1.76 -0.16,-1.48 -0.2,-4.16 -0.2,-7.28 v -13.76 l 4.44,0.08 c 3.16,0.04 4.08,1.08 4.16,1.96 l 0.04,0.36 c 0.04,0.52 0.12,0.68 0.4,0.68 0.2,0 0.28,-0.2 0.32,-0.56 0,-0.88 0.08,-3.4 0.08,-4.12 0,-0.52 -0.04,-0.72 -0.28,-0.72 -0.12,0 -0.4,0.08 -0.96,0.16 -0.52,0.08 -1.28,0.16 -2.4,0.16 h -14.28 c -1.16,0 -2.48,-0.04 -3.52,-0.16 -0.88,-0.12 -1.24,-0.4 -1.52,-0.4 -0.2,0 -0.32,0.2 -0.4,0.64 -0.08,0.28 -0.76,3.56 -0.76,4.12 0,0.36 0.08,0.56 0.32,0.56 0.24,0 0.32,-0.16 0.4,-0.44 0.08,-0.24 0.24,-0.68 0.6,-1.16 0.52,-0.76 1.36,-1 3.4,-1.04 l 5.24,-0.12 z" />
    <path
       inkscape:connector-curvature="0"
       id="path3778"
       style="font-style:normal;font-variant:normal;font-weight:bold;font-stretch:normal;font-size:40px;line-height:1.25;font-family:'Trajan Pro';-inkscape-font-specification:'Trajan Pro Bold';letter-spacing:11.07999325px;word-spacing:0px;fill:#ffffff"
       d="m 581.67399,1027.233 c 0,3.12 0,5.8 -0.16,7.24 -0.12,1 -0.32,1.64 -1.04,1.8 -0.32,0.08 -0.72,0.12 -1.24,0.12 -0.44,0 -0.56,0.2 -0.56,0.36 0,0.24 0.24,0.36 0.68,0.36 0.72,0 1.6,-0.04 2.44,-0.08 0.84,0 1.6,-0.04 2,-0.04 1.04,0 2.36,0.04 4.08,0.08 1.72,0.08 3.84,0.12 6.48,0.12 1.32,0 1.64,0 1.88,-0.88 0.2,-0.68 0.48,-3 0.48,-3.76 0,-0.36 -0.04,-0.8 -0.32,-0.8 -0.24,0 -0.32,0.16 -0.4,0.52 -0.24,1.4 -0.64,2.12 -1.52,2.52 -0.92,0.4 -2.4,0.44 -3.32,0.44 -3.6,0 -4.68,-0.52 -4.76,-2.84 -0.04,-1 0,-3.88 0,-5.04 v -2.72 c 0,-0.2 0.04,-0.36 0.2,-0.36 0.88,0 4.88,0.08 5.52,0.16 1.32,0.12 1.76,0.64 1.96,1.32 0.08,0.44 0.08,0.88 0.12,1.24 0,0.16 0.08,0.28 0.32,0.28 0.32,0 0.36,-0.48 0.36,-0.76 0,-0.24 0.08,-1.6 0.16,-2.28 0.2,-1.72 0.28,-2.28 0.28,-2.48 0,-0.2 -0.12,-0.36 -0.28,-0.36 -0.16,0 -0.28,0.2 -0.56,0.44 -0.32,0.36 -0.84,0.44 -1.68,0.52 -0.8,0.08 -5.36,0.08 -6.16,0.08 -0.2,0 -0.24,-0.16 -0.24,-0.36 v -8.4 c 0,-0.2 0.08,-0.32 0.24,-0.32 0.72,0 4.92,0.08 5.52,0.16 1.76,0.16 2.04,0.64 2.32,1.24 0.2,0.4 0.24,1 0.24,1.24 0,0.28 0.04,0.44 0.28,0.44 0.28,0 0.36,-0.4 0.4,-0.56 0.08,-0.4 0.16,-1.88 0.2,-2.24 0.08,-1.56 0.28,-1.96 0.28,-2.2 0,-0.16 -0.04,-0.32 -0.24,-0.32 -0.16,0 -0.36,0.12 -0.56,0.16 -0.28,0.04 -0.84,0.16 -1.48,0.2 -0.68,0.04 -8.48,0 -9.6,0 -1,0 -3.24,-0.08 -5.08,-0.08 -0.52,0 -0.8,0.08 -0.8,0.32 0,0.24 0.24,0.36 0.6,0.36 0.52,0 1.12,0.04 1.4,0.12 1.12,0.32 1.44,0.68 1.52,1.84 0.04,1.08 0.04,2.04 0.04,7.2 z" />
    <path
       inkscape:connector-curvature="0"
       id="path3780"
       style="font-style:normal;font-variant:normal;font-weight:bold;font-stretch:normal;font-size:40px;line-height:1.25;font-family:'Trajan Pro';-inkscape-font-specification:'Trajan Pro Bold';letter-spacing:11.07999325px;word-spacing:0px;fill:#ffffff"
       d="m 613.64082,1033.713 c -0.16,1.12 -0.48,2.48 -1.44,2.6 -0.56,0.08 -0.8,0.08 -1.08,0.08 -0.36,0 -0.56,0.16 -0.56,0.32 0,0.32 0.28,0.4 0.64,0.4 1.12,0 2.8,-0.12 3.48,-0.12 0.64,0 2.24,0.12 3.72,0.12 0.52,0 0.84,-0.08 0.84,-0.4 0,-0.16 -0.24,-0.32 -0.56,-0.32 -0.32,0 -0.64,-0.04 -1.24,-0.16 -0.6,-0.12 -1.08,-0.36 -1.08,-1 0,-0.56 0.04,-1 0.12,-1.6 l 1.68,-13.28 h 0.12 c 1.16,2.36 3.24,6.64 3.52,7.28 0.4,0.96 3.2,6.16 4.04,7.72 0.56,1.04 0.96,1.72 1.4,1.72 0.4,0 0.6,-0.32 1.4,-1.92 l 7.56,-15.2 h 0.12 l 1.96,14.72 c 0.12,0.96 0.04,1.36 -0.16,1.44 -0.24,0.08 -0.4,0.2 -0.4,0.36 0,0.2 0.2,0.36 1.04,0.4 1.4,0.08 6.4,0.24 7.28,0.24 0.52,0 0.92,-0.12 0.92,-0.4 0,-0.2 -0.24,-0.32 -0.56,-0.32 -0.44,0 -1,-0.04 -2,-0.32 -1.08,-0.32 -1.4,-1.24 -1.72,-3.36 l -3.2,-21 c -0.12,-0.72 -0.52,-1.08 -0.8,-1.08 -0.32,0 -0.64,0.28 -0.92,0.84 l -9.44,19.2 -9.44,-18.96 c -0.48,-0.92 -0.72,-1.08 -1.08,-1.08 -0.28,0 -0.6,0.32 -0.68,0.88 z" />
    <path
       inkscape:connector-curvature="0"
       id="path3782"
       style="font-style:normal;font-variant:normal;font-weight:bold;font-stretch:normal;font-size:40px;line-height:1.25;font-family:'Trajan Pro';-inkscape-font-specification:'Trajan Pro Bold';letter-spacing:11.07999325px;word-spacing:0px;fill:#ffffff"
       d="m 667.63396,1037.553 c 1.88,0 4.2,-0.2 5.88,-1.4 2.56,-1.8 3.52,-3.84 3.52,-6.36 0,-3.08 -1.44,-5.68 -6.08,-8.24 l -1.44,-0.8 c -3.16,-1.76 -3.72,-2.96 -3.72,-4.48 0,-2.32 2.28,-3.64 4.8,-3.64 2.28,0 3.4,0.96 3.92,1.6 0.76,0.88 0.92,1.92 0.92,2.24 0,0.4 0.12,0.6 0.36,0.6 0.28,0 0.44,-0.36 0.44,-1.08 0,-2.68 0.12,-3.64 0.12,-4.08 0,-0.24 -0.16,-0.36 -0.48,-0.44 -0.92,-0.24 -2.72,-0.56 -5,-0.56 -4.88,0 -8.88,2.68 -8.88,6.84 0,3 1.36,5.28 5.52,7.72 l 2.04,1.2 c 3.12,1.84 3.48,3.32 3.48,4.8 0,2.4 -1.84,4.32 -4.88,4.32 -2.2,0 -4.84,-0.84 -5.6,-3.36 -0.2,-0.6 -0.32,-1.32 -0.32,-1.76 0,-0.24 -0.04,-0.56 -0.36,-0.56 -0.28,0 -0.44,0.36 -0.44,0.88 -0.04,0.56 -0.2,2.68 -0.2,4.52 0,0.76 0.12,0.92 0.68,1.16 1.52,0.68 3.68,0.88 5.72,0.88 z" />
  </g>
</svg>
